<svg xmlns="http://www.w3.org/2000/svg" width="512" height="512" viewBox="0 0 512 512" role="img" aria-label="CASE Gifts">
  <rect width="512" height="512" rx="96" fill="#05070d"/>
  <rect x="52" y="52" width="408" height="408" rx="82" fill="#0b1120" stroke="#00f0ff" stroke-width="10"/>
  <path d="M128 222h256v170H128z" fill="#101827" stroke="#ffbd4a" stroke-width="12"/>
  <path d="M106 168h300v70H106z" fill="#141d31" stroke="#00f0ff" stroke-width="12"/>
  <path d="M256 168v224" stroke="#ffbd4a" stroke-width="18"/>
  <path d="M206 164c-52-8-72-38-56-66 21-36 81 3 106 66-4 1-22 3-50 0z" fill="#9b5cff"/>
  <path d="M306 164c52-8 72-38 56-66-21-36-81 3-106 66 4 1 22 3 50 0z" fill="#00f0ff"/>
  <circle cx="256" cy="280" r="42" fill="#00f0ff"/>
  <path d="M238 281l15 16 27-36" fill="none" stroke="#05070d" stroke-width="14" stroke-linecap="round" stroke-linejoin="round"/>
</svg>
