<svg xmlns="http://www.w3.org/2000/svg" viewBox="0 0 220 220"><defs><linearGradient id="a" x1="0" x2="1"><stop stop-color="#111827"/><stop offset="1" stop-color="#2b6fff"/></linearGradient><filter id="s"><feDropShadow dx="0" dy="12" stdDeviation="8" flood-color="#000" flood-opacity=".5"/></filter></defs><ellipse cx="110" cy="190" rx="62" ry="12" fill="#000" opacity=".32"/><path d="M52 120c8-56 42-82 91-69 20 5 29 19 33 55-39-11-80-7-124 14z" fill="url(#a)" filter="url(#s)"/><path d="M70 119c48-13 91-15 124 4-4 20-23 26-58 19-28-6-49-9-66-23z" fill="#101521"/><path d="M108 64l11 23 25 3-18 17 5 25-23-13-23 13 5-25-18-17 25-3z" fill="#00f0ff"/></svg>