<svg xmlns="http://www.w3.org/2000/svg" viewBox="0 0 220 220"><defs><linearGradient id="r" x1="0" x2="1" y1="0" y2="1"><stop stop-color="#ff5b62"/><stop offset="1" stop-color="#9b1018"/></linearGradient><filter id="s"><feDropShadow dx="0" dy="12" stdDeviation="8" flood-color="#000" flood-opacity=".45"/></filter></defs><ellipse cx="110" cy="198" rx="58" ry="12" fill="#000" opacity=".33"/><rect x="48" y="72" width="124" height="108" rx="14" fill="url(#r)" filter="url(#s)"/><rect x="36" y="54" width="148" height="38" rx="10" fill="#f9444f"/><path d="M110 54v126" stroke="#fff" stroke-width="14" opacity=".85"/><path d="M78 52c-25-20-12-42 16-23 10 7 16 17 16 25-10 2-22 4-32-2zM142 52c25-20 12-42-16-23-10 7-16 17-16 25 10 2 22 4 32-2z" fill="#f4f4f4"/><path d="M110 111l9 18 20 3-15 14 4 20-18-10-18 10 4-20-15-14 20-3z" fill="#fff" opacity=".75"/><text x="154" y="151" font-family="Arial" font-size="42" font-weight="900" fill="#220608" opacity=".55">?</text></svg>